South Africa Fifa World Cup 2010 - Closing Ceremony 720p HDTV x264 [UJ.rip]
======================================================================================

Format                                   : Matroska
Format version                           : Version 2
File size                                : 830 MiB
Duration                                 : 28mn 29s
Overall bit rate mode                    : Variable
Overall bit rate                         : 4 074 Kbps
Encoded date                             : UTC 2012-07-20 11:05:02
Ripped by                                : UJ.rip on 7/20/2012
Posted by                                : UJ.rip on 7/20/2012


VIDEO INFO ::
-------------
ID                                       : 1
Format                                   : AVC
Format/Info                              : Advanced Video Codec
Format profile                           : High@L4.1
Format settings, CABAC                   : Yes
Format settings, ReFrames                : 3 frames
Muxing mode                              : Header stripping
Codec ID                                 : V_MPEG4/ISO/AVC
Duration                                 : 28mn 29s
Bit rate mode                            : Variable
Bit rate                                 : 4 000 Kbps
Maximum bit rate                         : 40.0 Mbps
Width                                    : 1 280 pixels
Height                                   : 720 pixels
Display aspect ratio                     : 16:9
Frame rate                               : 25.000 fps
Color space                              : YUV
Chroma subsampling                       : 4:2:0
Bit depth                                : 8 bits
Scan type                                : Progressive
Bits/(Pixel*Frame)                       : 0.174
Stream size                              : 788 MiB (95%)
Title                                    : --==UJ.rip==--
Default                                  : Yes
Forced                                   : No
Bit rate                                 : 4 430 Kbps
Maximum bit rate                         : 16.9 Mbps
Width                                    : 1 920 pixels
Height                                   : 1 080 pixels
Display aspect ratio                     : 16:9
Frame rate                               : 24.000 fps


AUDIO INFO ::
-------------
ID                                       : 2
Format                                   : MPEG Audio
Format version                           : Version 1
Format profile                           : Layer 3
Muxing mode                              : Header stripping
Codec ID                                 : A_MPEG/L3
Codec ID/Hint                            : MP3
Duration                                 : 28mn 29s
Bit rate mode                            : Constant
Bit rate                                 : 128 Kbps
Channel(s)                               : 2 channels
Sampling rate                            : 44.1 KHz
Compression mode                         : Lossy
Stream size                              : 26.1 MiB (3%)
Title                                    : --==UJ.rip==--
Language                                 : English
Default                                  : Yes
Forced                                   : No


---------------------------------------------------------------------------------

Cover:           
     
http://img864.imageshack.us/img864/6696/coverfifaclosing.jpg


ScreenShots :
    
http://img829.imageshack.us/img829/8249/southafricafifaworldcup.jpg

Uploader:                
http://img402.imageshack.us/img402/4747/uploadera.jpg

                
http://thepiratebay.se/user/AshUtpal	